<svg xmlns="http://www.w3.org/2000/svg" width="19.18" height="8.75" viewBox="0 0 19.18 8.75">
  <title>dott_2</title>
  <g>
    <g opacity="0.6">
      <path d="M13.94,8.75h0C11.06,8.75,0,7.14,0,4.26H0C0,1.38,11.12,0,14,0h0c2.88,0,5.18,1.38,5.18,4.26h0C19.18,7.14,16.82,8.75,13.94,8.75Z" fill="#662d91"/>
    </g>
    <g opacity="0.75">
      <path d="M18.56,4.26a3.38,3.38,0,0,1-3.37,3.38c-1.87,0-10.56-1.52-10.56-3.38S13.32.89,15.19.89A3.37,3.37,0,0,1,18.56,4.26Z" fill="#662d91"/>
    </g>
    <path d="M18.13,4.26a2.25,2.25,0,0,1-2.25,2.25c-1.25,0-6.82-1-6.82-2.25S14.63,2,15.88,2A2.25,2.25,0,0,1,18.13,4.26Z" fill="#662d91" opacity="0.5"/>
  </g>
</svg>
