<?xml version="1.0" encoding="utf-8"?>
<!-- Generator: Adobe Illustrator 22.0.1, SVG Export Plug-In . SVG Version: 6.00 Build 0)  -->
<svg version="1.1"
	 id="svg3059"  x="0px" y="0px" viewBox="0 0 48 48"
	 style="enable-background:new 0 0 48 48;" xml:space="preserve">
<style type="text/css">
	.st0{fill:url(#path19_1_);}
	.st1{fill:#F6F6F6;}
	.st2{fill:#F6F6F6;stroke:#404040;stroke-width:0.2575;stroke-miterlimit:10;}
</style>
<g id="layer1" transform="translate(130.53125,-317.84375)">
	
		<linearGradient id="path19_1_" gradientUnits="userSpaceOnUse" x1="-126.0682" y1="876.3634" x2="-126.0682" y2="897.5538" gradientTransform="matrix(1 0 0 1 19.7117 -545.1089)">
		<stop  offset="0.1497" style="stop-color:#2A4F84"/>
		<stop  offset="0.3884" style="stop-color:#294E82"/>
		<stop  offset="1" style="stop-color:#172E4E"/>
	</linearGradient>
	<path id="path19" class="st0" d="M-85.1,348.4c0,2.2-1.8,4.1-4.1,4.1h-34.4c-2.2,0-4.1-1.8-4.1-4.1v-13c0-2.2,1.8-4.1,4.1-4.1h34.4
		c2.2,0,4.1,1.8,4.1,4.1V348.4z"/>
	<path id="path21" class="st1" d="M-92.3,341.6c1.8,0.6,2.7,1.7,2.7,3.2c0,1-0.4,1.8-1.1,2.4c-0.7,0.6-1.8,1-3.2,1
		c-1.4,0-2.7-0.4-3.8-1.1c0-0.3,0.1-0.7,0.3-1.1s0.4-0.7,0.6-1c1.1,0.6,2,0.8,2.8,0.8c0.4,0,0.7-0.1,0.9-0.2
		c0.2-0.1,0.3-0.3,0.3-0.5c0-0.4-0.3-0.7-0.9-0.9l-1.1-0.4c-1.7-0.6-2.5-1.6-2.5-3c0-1,0.4-1.8,1.1-2.4c0.7-0.6,1.7-1.1,2.9-1.1
		c0.6,0,1.2,0.1,2,0.3c0.7,0.2,1.3,0.6,1.8,0.8c0,0.4,0,0.8-0.2,1.2c-0.2,0.4-0.4,0.8-0.6,1c-1.1-0.5-2.1-0.8-2.8-0.8
		c-0.3,0-0.5,0.1-0.6,0.2c-0.1,0.1-0.2,0.3-0.2,0.5c0,0.3,0.3,0.6,0.8,0.8L-92.3,341.6L-92.3,341.6z"/>
	<path id="path23" class="st1" d="M-101.2,341.6c1.8,0.6,2.7,1.7,2.7,3.2c0,1-0.4,1.8-1.1,2.4c-0.7,0.6-1.8,1-3.2,1
		c-1.4,0-2.7-0.4-3.8-1.1c0-0.3,0.1-0.7,0.3-1.1c0.2-0.4,0.4-0.7,0.6-1c1.1,0.6,2,0.8,2.8,0.8c0.4,0,0.7-0.1,0.9-0.2
		c0.2-0.1,0.3-0.3,0.3-0.5c0-0.4-0.3-0.7-0.9-0.9l-1.1-0.4c-1.7-0.6-2.5-1.6-2.5-3c0-1,0.4-1.8,1.1-2.4c0.7-0.6,1.7-1.1,2.9-1.1
		c0.6,0,1.2,0.1,2,0.3c0.7,0.2,1.3,0.6,1.8,0.8c0,0.4,0,0.8-0.2,1.2c-0.2,0.4-0.4,0.8-0.6,1c-1.1-0.5-2.1-0.8-2.8-0.8
		c-0.3,0-0.5,0.1-0.6,0.2c-0.1,0.1-0.2,0.3-0.2,0.5c0,0.3,0.3,0.6,0.8,0.8L-101.2,341.6L-101.2,341.6z"/>
	<path id="path25" class="st1" d="M-107.8,341.7c0-0.6-0.1-1.2-0.3-1.7c-0.2-0.5-0.5-1-0.8-1.3c-0.4-0.4-0.8-0.7-1.3-0.9
		c-0.5-0.2-1.1-0.5-1.8-0.5c-0.8,0-1.4,0.3-2,0.6c-0.6,0.3-1,0.6-1.4,1.1c-0.4,0.5-0.6,1-0.8,1.7c-0.2,0.6-0.3,1.3-0.3,2.1
		c0,0.8,0.1,1.5,0.2,2.1c0.1,0.7,0.4,1.2,0.8,1.7c0.4,0.5,0.8,0.9,1.4,1.1c0.6,0.3,1.3,0.5,2.1,0.5c1.6,0,2.9-0.5,4-1.2
		c-0.1-0.8-0.4-1.4-0.8-1.8c-0.6,0.2-1,0.4-1.5,0.4c-0.4,0.1-0.8,0.1-1.1,0.1c-0.6,0-1.1-0.2-1.4-0.5c-0.3-0.3-0.4-0.7-0.5-1.3h5.3
		C-107.9,343.3-107.8,342.5-107.8,341.7z M-113.3,341.9c0-0.7,0.2-1.4,0.4-1.7c0.2-0.3,0.5-0.5,1-0.5c0.4,0,0.8,0.2,1,0.5
		c0.2,0.3,0.3,1,0.3,1.5l0,0.2H-113.3L-113.3,341.9L-113.3,341.9z"/>
	<path id="path27" class="st2" d="M-84,343.2c-0.6,0.5-0.9,1.2-0.9,2.2v3.5c0,1.2-0.4,2-1.2,2.7c-0.8,0.6-1.7,0.9-2.8,0.9l-0.6,0
		v-1.7c0.6-0.2,0.8-0.4,1-0.6c0.4-0.4,0.7-1,0.7-1.8v-2.8c0-1,0.1-1.7,0.4-2.3c0.4-0.5,1-1,2.1-1.4c-1.1-0.5-1.9-1.2-2.3-2
		c-0.2-0.5-0.2-1.2-0.2-2v-2.6c0-0.9-0.3-1.5-0.6-1.8c-0.2-0.2-0.5-0.4-1.1-0.5v-1.6c0.8,0,1.1,0,1.6,0c0.7,0,1.3,0.4,1.7,0.8
		c0.5,0.4,0.9,1,1.1,1.7c0.1,0.4,0.1,0.8,0.1,1.2v3c0,1.1,0.3,1.8,0.8,2.4c0.3,0.3,0.7,0.6,1.5,0.8v1.4
		C-83.3,342.6-83.7,342.9-84,343.2L-84,343.2z"/>
	<path id="path29" class="st2" d="M-124.3,331.3L-124.3,331.3c-0.2,0-0.4,0-0.6,0c-0.7,0-1.3,0.4-1.7,0.8c-0.5,0.4-1,1-1.1,1.7
		c-0.1,0.4-0.1,0.8-0.1,1.2v3c0,1.1-0.4,1.8-0.9,2.4c-0.3,0.3-0.9,0.6-1.7,0.8v1.4c0.6,0.2,1.3,0.4,1.6,0.7c0.6,0.5,1,1.2,1,2.2v3.5
		c0,1.2,0.3,2,1.1,2.7c0.8,0.6,1.7,0.9,2.8,0.9l0.7,0v-1.7c-0.6-0.2-0.9-0.4-1.1-0.6c-0.4-0.4-0.6-1-0.6-1.8v-2.8
		c0-1-0.2-1.7-0.5-2.3c-0.4-0.5-1-1-2.1-1.4c1.1-0.5,1.9-1.2,2.3-2c0.2-0.5,0.3-1.2,0.3-2v-2.6c0-0.9,0.2-1.5,0.5-1.8
		c0.2-0.2,0.5-0.3,1-0.5l0.7,0c0-0.6,0-1,0-1.7L-124.3,331.3L-124.3,331.3L-124.3,331.3L-124.3,331.3z"/>
	<path id="path31" class="st1" d="M-117.6,345.5h-0.5c-0.6,0-0.8-0.3-0.8-0.9V333c0-0.7-0.2-1.2-0.5-1.5c-0.3-0.3-0.7-0.3-1.3-0.3
		h-1.2l-0.1,0v0l0,1.7v12.1c0,1,0.2,1.7,0.6,2.1c0.4,0.4,1,0.7,2,0.7c0.6,0,1.4-0.1,2.2-0.2c0-0.1,0.1-0.4,0.1-0.9
		C-117.3,346.4-117.4,345.9-117.6,345.5L-117.6,345.5z"/>
</g>
</svg>
